<?xml version="1.0" encoding="utf-8"?>
<!-- Generator: Adobe Illustrator 22.0.1, SVG Export Plug-In . SVG Version: 6.00 Build 0)  -->
<svg version="1.1" id="Layer_1" xmlns="http://www.w3.org/2000/svg" xmlns:xlink="http://www.w3.org/1999/xlink" x="0px" y="0px"
	 viewBox="0 0 277.9 96.3" style="enable-background:new 0 0 277.9 96.3;" xml:space="preserve">
<style type="text/css">
	.st0{fill:#003976;}
</style>
<g>
	<path class="st0" d="M66.1,4.6c0.4-2.1,1-3,3.4-3l0.1-0.6h-7.4l-0.1,0.6c1.2,0,2.4,0.2,2.4,1.7c0,0.4-0.1,0.9-0.2,1.3l-2.2,11.2
		c-0.5,2.5-1.3,5.5-6,5.5c-2.3,0-4.1-1.4-4.1-3.6c0-1,0.1-2,0.4-3l2-10c0.4-2.1,1-3,3.4-3L58,0.9h-8.5l-0.2,0.6
		c1.3,0,2.5,0.2,2.5,1.7c0,0.4-0.1,0.9-0.2,1.3l-2,10c-0.2,1-0.4,2.1-0.4,3.1c0,3.3,3,4.7,6.3,4.7c7.1,0,7.7-3.7,8.4-6.7L66.1,4.6z"
		/>
	<path class="st0" d="M70.3,22.1h2.5c0.6-3.6,4.6-13,7.1-13c0.4,0,0.7,0.4,0.7,0.9c0,0.5-0.1,0.9-0.2,1.3L78.6,19
		c-0.2,0.7-0.3,1.3-0.3,2c-0.1,0.7,0.5,1.4,1.2,1.5c0,0,0.1,0,0.1,0c1.6,0,3.9-2.8,4.9-3.8L84,18.3c-0.8,0.8-2.1,2.2-2.8,2.2
		c-0.2,0-0.3-0.3-0.3-0.5c0-0.3,0.1-0.7,0.2-1l1.8-8c0.1-0.6,0.2-1.2,0.2-1.8c0-1.3-0.7-2.1-1.8-2.1c-3.2,0-6.1,5.7-7.2,8.6L74,15.7
		l1-5.1c0.2-0.7,0.3-1.3,0.3-2c0.1-0.7-0.4-1.4-1.1-1.5c0,0-0.1,0-0.1,0c-1.6,0-4,2.8-4.9,3.8l0.4,0.4c0.8-0.8,2.2-2.2,2.8-2.2
		c0.2,0,0.3,0.3,0.3,0.5c0,0.3-0.1,0.7-0.1,1L70.3,22.1z"/>
	<path class="st0" d="M94.4,18.3c-0.8,0.8-2.2,2.2-2.8,2.2c-0.2,0-0.3-0.3-0.3-0.5c0-0.3,0.1-0.7,0.1-1l1.7-8.4
		c0.1-0.6,0.2-1.2,0.3-1.8c0-0.9-0.4-1.7-1.2-1.7c-1.6,0-3.9,2.8-4.9,3.8l0.4,0.4c0.8-0.8,2.2-2.2,2.8-2.2c0.2,0,0.3,0.3,0.3,0.5
		c0,0.3-0.1,0.7-0.1,1L89,19c-0.2,0.7-0.2,1.3-0.3,2c-0.1,0.7,0.4,1.4,1.2,1.5c0,0,0.1,0,0.1,0c1.6,0,3.9-2.8,4.9-3.8L94.4,18.3z
		 M93.1,4.2c1,0,1.8-0.8,1.8-1.8c0,0,0,0,0,0c0-1-0.8-1.8-1.8-1.8c0,0,0,0,0,0c-1-0.1-1.9,0.7-1.9,1.7s0.7,1.9,1.7,1.9
		C92.9,4.3,93,4.3,93.1,4.2"/>
	<path class="st0" d="M103.5,11.3c0.2-0.8,0.3-1.5,0.4-2.3c0-1-0.5-1.8-1.4-1.8c-1.5,0-3.5,2.6-4.7,3.8l0.4,0.4
		c0.8-0.8,2.2-2.2,2.8-2.2c0.2,0,0.3,0.3,0.3,0.5c0,0.3,0,0.7-0.1,1l-1.9,9.1c-0.1,0.5-0.2,1-0.2,1.5c0,0.9,0.5,1.2,1.1,1.2
		c4.2,0,10.7-7.4,10.7-13.3c0-0.8-0.2-2-1.5-2c-0.8,0-1.5,0.6-1.5,1.5c0,0,0,0,0,0c0,1,0.9,1.5,0.9,3.1c0,4.3-5.2,9.2-6.7,9.2
		c-0.3,0-0.4-0.2-0.4-0.5c0-0.4,0.1-0.8,0.2-1.2L103.5,11.3z"/>
	<path class="st0" d="M123.7,20.8c-0.7,0.3-1.4,0.4-2.1,0.4c-3.9,0-4.8-2.2-4.8-4.9c0-1.1,0.2-2.1,0.4-3.2h3.4c2.4,0,5.1-0.2,5.1-3
		c0-2.1-1.9-3-4-3c-5.8,0-7.8,5.4-7.8,9.7c0,3.7,2,5.5,5.2,5.5c1.5,0,3-0.3,4.4-0.7L123.7,20.8z M117.5,12.2c0.3-1.4,1.4-4,3.8-4
		c1-0.1,1.9,0.6,2,1.6c0,0,0,0.1,0,0.1c0,2-1.8,2.3-3.1,2.3H117.5z"/>
	<path class="st0" d="M129.3,22.1h2.5c1.7-8.5,4.4-12.4,5.3-12.4c0.4,0,0.7,0.5,1.4,0.5c0.9,0,1.5-0.7,1.5-1.6c0,0,0,0,0,0
		c0-0.8-0.6-1.5-1.4-1.5c-0.1,0-0.1,0-0.2,0c-2.4,0-4.2,4.3-4.8,5.8l-0.1-0.1l0.5-2.3c0.1-0.7,0.2-1.3,0.2-2
		c0.1-0.7-0.4-1.4-1.2-1.5c0,0-0.1,0-0.1,0c-1.6,0-3.9,2.8-4.9,3.8l0.4,0.4c0.8-0.8,2.2-2.2,2.8-2.2c0.2,0,0.4,0.3,0.4,0.5
		c0,0.3-0.1,0.7-0.1,1L129.3,22.1z"/>
	<path class="st0" d="M151.2,11.1l0.5-3.3c-1.1-0.4-2.3-0.6-3.5-0.6c-2.9,0-5.6,1.4-5.6,4.4c0,3.8,5.5,3.8,5.5,6.9
		c-0.1,1.8-1.7,3.1-3.5,3c0,0,0,0,0,0c-2.5,0-2.9-1.7-2.9-3.1h-0.7l-0.4,3.5c1.1,0.4,2.3,0.6,3.6,0.6c3.7,0,6.6-1.4,6.6-4.9
		c0-4.1-5.5-4.1-5.5-7c0-1.3,1-2.3,2.3-2.4c0.1,0,0.1,0,0.2,0c1.5-0.1,2.7,1.1,2.8,2.6c0,0.1,0,0.2,0,0.3L151.2,11.1z"/>
	<path class="st0" d="M162,18.3c-0.8,0.8-2.2,2.2-2.8,2.2c-0.2,0-0.4-0.3-0.4-0.5c0-0.3,0.1-0.7,0.1-1l1.7-8.4
		c0.1-0.6,0.2-1.2,0.3-1.7c0-0.9-0.4-1.7-1.2-1.7c-1.6,0-3.9,2.8-4.9,3.8l0.4,0.4c0.8-0.8,2.2-2.2,2.8-2.2c0.2,0,0.3,0.3,0.3,0.5
		c0,0.3-0.1,0.7-0.1,1l-1.8,8.4c-0.2,0.7-0.2,1.3-0.3,2c-0.1,0.7,0.4,1.4,1.2,1.5c0,0,0.1,0,0.1,0c1.6,0,3.9-2.8,4.9-3.8L162,18.3z
		 M160.6,4.2c1,0,1.8-0.8,1.8-1.8c0,0,0,0,0,0c0-1-0.8-1.8-1.8-1.8c0,0,0,0,0,0c-1-0.1-1.9,0.7-1.9,1.7s0.7,1.9,1.7,1.9
		C160.4,4.3,160.5,4.3,160.6,4.2"/>
	<path class="st0" d="M172.4,18.3c-0.9,0.9-2.3,2.2-3,2.2c-0.3,0-0.5-0.2-0.5-0.5c0-0.3,0.1-0.7,0.2-1l2.1-10.6h4.2l0.2-1h-4.2
		l1-4.8h-0.8c-0.8,3.2-2.3,4.8-5.3,4.8l-0.2,1h2.6L166.6,19c-0.1,0.7-0.2,1.3-0.2,2c-0.1,0.8,0.5,1.4,1.3,1.5c0,0,0.1,0,0.1,0
		c1.7,0,4.1-2.7,5.1-3.8L172.4,18.3z"/>
	<path class="st0" d="M181.8,9.6c-0.2-1.3-0.6-2.4-1.7-2.4s-4,2.7-4.7,3.4l0.4,0.4c0.7-0.6,2-1.8,2.8-1.8c0.5,0,0.8,0.6,1,2
		l2.1,12.2c-0.7,0.8-2.9,3.3-4.1,3.3c-0.7,0-1-0.9-2-0.9c-0.8,0-1.5,0.7-1.5,1.5c0,0,0,0,0,0c0,0.8,0.7,1.5,1.6,1.5c0,0,0,0,0.1,0
		c4.1,0,14.1-13.2,14.1-19.8c0-1.2-0.6-1.9-1.6-1.9c-0.8,0-1.5,0.6-1.6,1.5c0,1,0.9,1.6,0.9,3.1c0,3-2.9,7.6-3.9,9.2L181.8,9.6z"/>
	<path class="st0" d="M208.6,22.5c4.9,0,7.5-5.5,7.5-9.8c0-3.1-1.5-5.5-4.9-5.5c-5,0-7.6,5.6-7.6,9.9
		C203.6,20,205.1,22.5,208.6,22.5 M206.4,17.9c0-3.1,1.3-9.7,4.6-9.7c1.6,0,2.2,1.5,2.2,3.3c0,3-1.2,9.9-4.6,9.9
		C207.4,21.4,206.4,20.4,206.4,17.9"/>
	<path class="st0" d="M226,8.5h4.4l0.2-1h-4.3l0.4-2.3c0.4-2.2,1-4.2,2.5-4.2c1.8,0,1.1,2.6,3,2.6c0.8,0,1.5-0.7,1.6-1.5
		c0-1.3-1.7-2.1-3.5-2.1c-4,0-5.6,2.5-6.2,5.9l-0.3,1.6h-2.5l-0.2,1h2.5l-3.1,15.2c-0.4,2.6-1.1,4.1-2.4,4.1c-1.7,0-1.1-2.5-3-2.5
		c-0.8,0-1.5,0.6-1.6,1.5c0,1.5,2,2.1,3.6,2.1c4.5,0,5.6-3.5,6.3-7.1L226,8.5z"/>
	<path class="st0" d="M0,76h0.3h0.3c0.1,0,0.3,0,0.4,0c0.2,0,0.3,0.1,0.5,0.2c0.1,0.1,0.3,0.3,0.4,0.4C1.9,76.9,2,77.1,2,77.4v13.8
		H0V76z"/>
	<path class="st0" d="M5.5,80.5c0.1,0,0.2,0,0.2,0h0.1c0.3,0,0.7,0.1,0.9,0.3c0.3,0.2,0.5,0.5,0.5,0.9c1-0.9,2.2-1.4,3.5-1.3
		c0.8-0.1,1.7,0.2,2.4,0.7c0.5,0.4,0.9,1,1.1,1.7c0.1,0.3,0.1,0.7,0.1,1c0,0.4,0,0.7,0,1.1v6.4h-1.9v-6.4c0-0.3,0-0.6,0-0.8
		c0-0.3,0-0.5-0.1-0.7c-0.1-0.4-0.3-0.7-0.7-0.9c-0.4-0.3-1-0.4-1.5-0.3c-0.4,0-0.8,0-1.2,0.1c-0.3,0.1-0.6,0.2-0.9,0.4
		c-0.2,0.1-0.4,0.3-0.6,0.5c-0.1,0.2-0.2,0.4-0.2,0.6v7.6H5.5L5.5,80.5z"/>
	<path class="st0" d="M23.7,83c-0.3-0.4-0.7-0.6-1.1-0.8c-0.5-0.2-1-0.3-1.5-0.3c-0.2,0-0.4,0-0.6,0.1c-0.2,0-0.5,0.1-0.7,0.2
		c-0.2,0.1-0.4,0.2-0.5,0.4C19,82.7,19,83,19,83.2c0,0.2,0.1,0.4,0.2,0.6c0.1,0.2,0.3,0.3,0.5,0.4c0.2,0.1,0.5,0.2,0.7,0.3
		c0.3,0.1,0.6,0.2,0.9,0.2c0.4,0.1,0.9,0.2,1.3,0.4c0.4,0.1,0.8,0.4,1.1,0.6c0.3,0.3,0.6,0.6,0.8,0.9c0.4,0.9,0.4,2,0,2.9
		c-0.2,0.4-0.5,0.7-0.9,1c-0.4,0.3-0.9,0.5-1.3,0.6c-0.5,0.1-1,0.2-1.6,0.2c-0.5,0-1,0-1.4-0.1c-0.4-0.1-0.7-0.2-1.1-0.3
		c-0.3-0.1-0.6-0.3-0.8-0.5c-0.1-0.1-0.2-0.3-0.2-0.5c0-0.2,0.1-0.4,0.2-0.6c0.1-0.2,0.2-0.4,0.4-0.7c0.1,0.1,0.2,0.2,0.4,0.3
		c0.2,0.1,0.4,0.3,0.7,0.4c0.3,0.1,0.6,0.2,0.9,0.3c0.3,0.1,0.7,0.1,1,0.1c0.3,0,0.5,0,0.8-0.1c0.2-0.1,0.5-0.1,0.7-0.3
		c0.2-0.1,0.4-0.3,0.5-0.5c0.1-0.2,0.2-0.5,0.2-0.8c0-0.3-0.1-0.5-0.2-0.8c-0.2-0.2-0.4-0.4-0.6-0.5c-0.2-0.1-0.5-0.3-0.8-0.3
		c-0.3-0.1-0.6-0.2-0.9-0.2c-0.4-0.1-0.8-0.2-1.3-0.3c-0.4-0.1-0.7-0.3-1.1-0.6c-1-0.9-1.3-2.3-0.7-3.5c0.2-0.4,0.5-0.7,0.9-1
		c0.4-0.3,0.8-0.4,1.2-0.6c0.5-0.1,1-0.2,1.4-0.2c0.5,0,1.1,0.1,1.6,0.2c0.4,0.1,0.8,0.2,1.1,0.4c0.2,0.1,0.4,0.3,0.6,0.5
		c0.1,0.1,0.1,0.3,0.1,0.4c0,0.2,0,0.4-0.1,0.6c-0.1,0.2-0.2,0.5-0.3,0.7H23.7z"/>
	<path class="st0" d="M27.4,80.5c0.1,0,0.2,0,0.3,0h0.1c0.3,0,0.7,0.1,0.9,0.2c0.3,0.2,0.5,0.5,0.5,0.8c0.3-0.4,0.7-0.7,1.2-0.9
		c0.6-0.3,1.3-0.4,1.9-0.4c0.6,0,1.1,0.1,1.7,0.3c0.5,0.2,1,0.5,1.4,0.9c0.4,0.5,0.8,1.1,1,1.7c0.3,0.8,0.4,1.7,0.3,2.5
		c0,1-0.1,1.9-0.4,2.8c-0.2,0.7-0.6,1.3-1.1,1.8c-0.4,0.4-0.9,0.7-1.5,0.9c-0.5,0.2-1,0.3-1.6,0.3c-0.7,0-1.3-0.1-1.9-0.4
		c-0.4-0.2-0.7-0.4-1-0.8v5.8h-2V80.5z M29.4,88.6c0.1,0.1,0.2,0.3,0.4,0.4c0.2,0.2,0.4,0.3,0.6,0.4c0.2,0.1,0.5,0.2,0.8,0.3
		c0.3,0.1,0.6,0.1,0.9,0.1c0.8,0.1,1.6-0.3,2.1-1c0.5-0.9,0.8-2,0.7-3c0-0.5,0-1-0.1-1.6c-0.1-0.4-0.2-0.9-0.5-1.2
		c-0.2-0.3-0.5-0.6-0.9-0.8c-0.4-0.2-0.9-0.3-1.4-0.3c-0.6,0-1.3,0.1-1.8,0.4c-0.4,0.2-0.7,0.6-0.7,1.1L29.4,88.6z"/>
	<path class="st0" d="M39.4,77c0-0.3,0.1-0.7,0.3-0.9c0.2-0.2,0.5-0.4,0.9-0.4c0.3,0,0.6,0.1,0.9,0.4c0.2,0.2,0.4,0.6,0.3,0.9
		c0,0.3-0.1,0.6-0.3,0.9c-0.2,0.2-0.5,0.4-0.9,0.3C39.9,78.2,39.4,77.7,39.4,77C39.4,77,39.4,77,39.4,77z M39.7,80.4H40h0.2
		c0.4,0,0.8,0.1,1.1,0.3c0.3,0.3,0.5,0.8,0.4,1.2v7.2c0,0.3,0,0.6,0.2,0.9c0.1,0.2,0.4,0.3,0.9,0.3v0.8c-0.2,0.1-0.4,0.1-0.6,0.1
		c-0.2,0-0.5,0-0.7,0c-0.3,0-0.7-0.1-1-0.2c-0.2-0.1-0.4-0.3-0.5-0.6c-0.1-0.2-0.2-0.5-0.2-0.8c0-0.3,0-0.6,0-0.8L39.7,80.4z"/>
	<path class="st0" d="M45.2,80.5c0.1,0,0.2,0,0.3,0h0.1c0.3,0,0.7,0.1,0.9,0.3c0.3,0.2,0.5,0.5,0.5,0.9c0.3-0.4,0.6-0.7,1-0.9
		c0.4-0.3,1-0.4,1.5-0.4c0.2,0,0.4,0,0.5,0c0.2,0,0.4,0.1,0.5,0.2c0.2,0.1,0.3,0.2,0.4,0.3c0.1,0.1,0.2,0.3,0.2,0.5
		c0,0.3-0.1,0.5-0.2,0.8c-0.1,0.2-0.2,0.5-0.4,0.7c-0.2-0.2-0.4-0.3-0.6-0.4c-0.5-0.2-1.1-0.2-1.6,0c-0.2,0.1-0.4,0.2-0.6,0.3
		c-0.2,0.1-0.3,0.3-0.4,0.5c-0.1,0.2-0.2,0.4-0.2,0.6v7.5h-2V80.5z"/>
	<path class="st0" d="M52.8,77c0-0.3,0.1-0.7,0.4-0.9c0.5-0.5,1.2-0.5,1.7,0c0,0,0,0,0,0c0.2,0.2,0.4,0.6,0.3,0.9
		c0.1,0.7-0.4,1.3-1.1,1.3c-0.7,0.1-1.3-0.4-1.3-1.1C52.8,77.1,52.8,77.1,52.8,77z M53.2,80.4h0.3h0.1c0.4,0,0.8,0.1,1.1,0.3
		c0.3,0.3,0.5,0.8,0.4,1.2v7.2c0,0.3,0,0.6,0.2,0.9c0.1,0.2,0.4,0.3,0.9,0.3v0.8c-0.2,0.1-0.4,0.1-0.5,0.1c-0.2,0-0.5,0-0.7,0
		c-0.3,0-0.7-0.1-1-0.2c-0.2-0.1-0.4-0.3-0.5-0.6c-0.1-0.2-0.2-0.5-0.2-0.8c0-0.3,0-0.6,0-0.8L53.2,80.4z"/>
	<path class="st0" d="M58.8,80.5c0.1,0,0.2,0,0.2,0h0.1c0.3,0,0.7,0.1,0.9,0.3c0.3,0.2,0.5,0.5,0.5,0.9c0.4-0.4,0.9-0.7,1.4-0.9
		c0.7-0.3,1.4-0.4,2.1-0.4c0.8-0.1,1.7,0.2,2.4,0.7c0.5,0.4,0.9,1,1.1,1.7c0.1,0.3,0.1,0.7,0.1,1v1.1v6.4h-1.9v-6.4
		c0-0.3,0-0.6,0-0.8c0-0.3,0-0.5-0.1-0.7c-0.1-0.4-0.3-0.7-0.7-0.9c-0.5-0.3-1-0.4-1.5-0.3c-0.4,0-0.8,0-1.2,0.1
		c-0.3,0.1-0.6,0.2-0.9,0.4c-0.2,0.1-0.4,0.3-0.6,0.5c-0.1,0.2-0.2,0.4-0.2,0.6v7.6h-1.9L58.8,80.5z"/>
	<path class="st0" d="M78.1,90.3l-0.5,0.4c-0.2,0.2-0.4,0.3-0.6,0.4c-0.3,0.1-0.6,0.2-0.9,0.3c-0.3,0.1-0.7,0.1-1,0.1
		c-0.6,0-1.2-0.1-1.7-0.3c-0.5-0.2-1-0.5-1.4-0.9c-0.5-0.5-0.8-1.1-1-1.7c-0.3-0.8-0.4-1.7-0.4-2.6c0-0.9,0.1-1.7,0.4-2.6
		c0.2-0.7,0.5-1.3,1-1.8c0.4-0.4,0.9-0.8,1.4-1c0.5-0.2,1.1-0.4,1.7-0.3c0.6,0,1.2,0.1,1.8,0.3c0.4,0.2,0.9,0.5,1.2,0.8
		c0.1-0.3,0.2-0.6,0.5-0.7c0.2-0.1,0.5-0.2,0.8-0.2h0.2c0.1,0,0.2,0,0.3,0v9.9c0,0.8-0.1,1.7-0.2,2.5c-0.1,0.7-0.4,1.3-0.8,1.8
		c-0.4,0.5-1,0.9-1.6,1.2c-0.8,0.3-1.7,0.4-2.5,0.4c-0.6,0-1.3-0.1-1.9-0.2c-0.5-0.1-0.9-0.3-1.3-0.5c-0.2-0.1-0.4-0.3-0.6-0.5
		c-0.1-0.1-0.2-0.3-0.2-0.5c0-0.2,0.1-0.5,0.3-0.7c0.2-0.2,0.3-0.4,0.5-0.6c0.1,0.1,0.2,0.2,0.3,0.3c0.2,0.2,0.4,0.3,0.7,0.4
		c0.3,0.2,0.7,0.3,1,0.4c0.4,0.1,0.8,0.2,1.2,0.2c0.6,0,1.2-0.1,1.7-0.3c0.4-0.2,0.8-0.5,1-0.9c0.2-0.4,0.4-0.8,0.4-1.3
		c0.1-0.6,0.1-1.1,0.1-1.7L78.1,90.3z M78.1,83.1c-0.1-0.1-0.2-0.2-0.3-0.3c-0.2-0.1-0.3-0.3-0.5-0.4c-0.2-0.1-0.5-0.2-0.8-0.3
		c-0.3-0.1-0.7-0.1-1-0.1c-0.8,0-1.5,0.4-2,1c-0.6,0.9-0.8,1.9-0.8,2.9c0,0.5,0,1.1,0.1,1.6c0.1,0.5,0.2,0.9,0.5,1.3
		c0.2,0.4,0.5,0.7,0.9,0.9c0.4,0.2,0.9,0.3,1.4,0.3c0.3,0,0.7,0,1-0.1c0.3-0.1,0.6-0.2,0.8-0.3c0.2-0.1,0.4-0.3,0.5-0.5
		c0.1-0.2,0.2-0.4,0.2-0.6L78.1,83.1z"/>
	<path class="st0" d="M95,90.3c-0.1,0.1-0.3,0.2-0.4,0.4c-0.2,0.2-0.4,0.3-0.7,0.4c-0.3,0.1-0.6,0.2-0.8,0.3c-0.3,0.1-0.7,0.1-1,0.1
		c-0.6,0-1.2-0.1-1.7-0.3c-0.5-0.2-1-0.5-1.4-0.9c-0.5-0.5-0.8-1.1-1-1.7c-0.3-0.8-0.4-1.7-0.4-2.6c0-0.9,0.1-1.8,0.4-2.6
		c0.2-0.7,0.5-1.3,1-1.8c0.4-0.4,0.9-0.8,1.4-1c1.1-0.5,2.4-0.5,3.5,0c0.4,0.2,0.9,0.5,1.2,0.8c0.1-0.3,0.3-0.6,0.5-0.7
		c0.2-0.1,0.5-0.2,0.8-0.2h0.2c0.1,0,0.2,0,0.3,0v9.9c0,0.8-0.1,1.7-0.2,2.5c-0.1,0.7-0.4,1.3-0.8,1.8c-0.4,0.5-1,0.9-1.6,1.2
		c-0.8,0.3-1.7,0.4-2.5,0.4c-0.6,0-1.3-0.1-1.9-0.2c-0.5-0.1-0.9-0.3-1.3-0.5c-0.2-0.1-0.4-0.3-0.6-0.5c-0.1-0.1-0.2-0.3-0.2-0.5
		c0-0.2,0.1-0.4,0.2-0.6c0.2-0.2,0.3-0.4,0.5-0.6c0.1,0.1,0.2,0.2,0.3,0.3c0.2,0.2,0.4,0.3,0.7,0.4c0.3,0.2,0.7,0.3,1,0.4
		c0.4,0.1,0.8,0.2,1.2,0.2c0.6,0,1.2-0.1,1.7-0.3c0.4-0.2,0.8-0.5,1-0.9c0.2-0.4,0.4-0.8,0.4-1.3c0.1-0.6,0.1-1.1,0.1-1.7L95,90.3z
		 M95,83.1l-0.3-0.3c-0.2-0.1-0.3-0.3-0.5-0.4c-0.2-0.1-0.5-0.2-0.8-0.3c-0.3-0.1-0.7-0.1-1-0.1c-0.8,0-1.5,0.4-2,1
		c-0.6,0.9-0.8,1.9-0.8,2.9c0,0.5,0,1.1,0.1,1.6c0.1,0.5,0.2,0.9,0.5,1.3c0.2,0.4,0.5,0.7,0.9,0.9c0.4,0.2,0.9,0.3,1.4,0.3
		c0.3,0,0.7,0,1-0.1c0.3-0.1,0.6-0.2,0.8-0.3c0.2-0.1,0.4-0.3,0.5-0.5c0.1-0.2,0.2-0.4,0.2-0.6L95,83.1z"/>
	<path class="st0" d="M100.3,75.1c0.1,0,0.2,0,0.3,0h0.1c0.4,0,0.8,0.1,1.1,0.3c0.3,0.3,0.5,0.8,0.4,1.2v12.4c0,0.2,0,0.4,0,0.6
		c0,0.1,0,0.3,0.1,0.4c0.1,0.1,0.2,0.2,0.3,0.2c0.2,0.1,0.4,0.1,0.6,0.1v0.8c-0.2,0.1-0.4,0.1-0.6,0.1c-0.2,0-0.5,0-0.7,0
		c-0.3,0-0.7-0.1-1-0.2c-0.2-0.1-0.4-0.3-0.5-0.6c-0.1-0.2-0.2-0.5-0.2-0.8c0-0.3,0-0.6,0-0.8L100.3,75.1z"/>
	<path class="st0" d="M115.2,85.8c0,0.7-0.1,1.4-0.3,2.2c-0.2,0.7-0.5,1.3-0.9,1.8c-0.4,0.5-0.9,1-1.6,1.3c-0.7,0.3-1.5,0.5-2.3,0.5
		c-0.8,0-1.6-0.1-2.3-0.4c-0.6-0.3-1.1-0.7-1.5-1.2c-0.4-0.5-0.7-1.1-0.9-1.8c-0.2-0.7-0.3-1.5-0.3-2.2c0-0.7,0.1-1.5,0.3-2.2
		c0.2-0.7,0.6-1.3,1-1.8c0.4-0.5,1-0.9,1.6-1.2c1.4-0.6,3-0.6,4.5,0c0.6,0.3,1.1,0.7,1.5,1.3c0.4,0.5,0.7,1.1,0.9,1.8
		C115.1,84.4,115.2,85.1,115.2,85.8z M113.2,85.8c0-0.5,0-0.9-0.1-1.4c-0.1-0.4-0.2-0.9-0.4-1.2c-0.2-0.4-0.5-0.7-0.9-0.9
		c-0.5-0.2-1-0.4-1.5-0.3c-0.5,0-1,0.1-1.4,0.3c-0.4,0.2-0.7,0.5-0.9,0.9c-0.2,0.4-0.4,0.8-0.5,1.2c-0.1,0.5-0.2,0.9-0.2,1.4
		c0,0.5,0,1,0.1,1.4c0.1,0.5,0.2,0.9,0.5,1.3c0.2,0.4,0.5,0.7,0.9,1c0.4,0.3,0.9,0.4,1.4,0.4c0.5,0,1-0.1,1.5-0.4
		c0.4-0.2,0.7-0.6,0.9-1c0.2-0.4,0.4-0.8,0.4-1.3C113.1,86.8,113.2,86.3,113.2,85.8L113.2,85.8z"/>
	<path class="st0" d="M118,75.1c0.1,0,0.2,0,0.3,0h0.2c0.4,0,0.8,0.1,1.1,0.3c0.3,0.3,0.5,0.8,0.4,1.2v4.8c0.3-0.3,0.8-0.6,1.2-0.8
		c0.6-0.3,1.3-0.4,1.9-0.4c0.6,0,1.1,0.1,1.7,0.3c0.5,0.2,1,0.5,1.4,0.9c0.5,0.5,0.8,1.1,1,1.7c0.3,0.8,0.4,1.7,0.4,2.5
		c0,1-0.1,1.9-0.4,2.8c-0.2,0.7-0.6,1.3-1.1,1.8c-0.4,0.4-0.9,0.7-1.5,0.9c-0.5,0.2-1,0.3-1.6,0.3c-0.4,0-0.8,0-1.2-0.1
		c-0.3-0.1-0.6-0.2-0.8-0.3c-0.2-0.1-0.4-0.2-0.6-0.4c-0.1-0.1-0.2-0.2-0.3-0.4v0.9H118L118,75.1z M120,88.6
		c0.1,0.1,0.2,0.3,0.4,0.4c0.2,0.2,0.4,0.3,0.6,0.4c0.2,0.1,0.5,0.2,0.8,0.3c0.3,0.1,0.6,0.1,0.9,0.1c0.8,0.1,1.7-0.3,2.1-1
		c0.5-0.9,0.8-2,0.7-3c0-0.5,0-1-0.2-1.6c-0.1-0.4-0.2-0.9-0.5-1.2c-0.2-0.3-0.5-0.6-0.9-0.8c-0.4-0.2-0.9-0.3-1.4-0.3
		c-0.6,0-1.3,0.1-1.8,0.5c-0.4,0.2-0.7,0.7-0.7,1.1L120,88.6z"/>
	<path class="st0" d="M130.7,82.9c-0.1-0.2-0.2-0.4-0.3-0.6c-0.1-0.2-0.1-0.4-0.1-0.5c0-0.2,0.2-0.4,0.4-0.6
		c0.3-0.2,0.6-0.4,0.9-0.5c0.4-0.1,0.8-0.3,1.3-0.3c0.5-0.1,0.9-0.1,1.4-0.1c0.7,0,1.3,0.1,1.9,0.2c0.5,0.1,0.9,0.4,1.2,0.8
		c0.3,0.4,0.6,0.8,0.7,1.2c0.1,0.6,0.2,1.1,0.2,1.7v4.5c0,0.3,0,0.6,0,0.8c0,0.2,0.1,0.3,0.2,0.4c0.1,0.1,0.2,0.2,0.4,0.2
		c0.2,0,0.4,0,0.6,0v0.9c-0.2,0.1-0.3,0.1-0.5,0.1c-0.2,0-0.4,0-0.6,0c-0.4,0-0.8-0.1-1.2-0.3c-0.4-0.2-0.6-0.6-0.6-1
		c-0.4,0.4-0.9,0.7-1.4,1c-0.7,0.3-1.4,0.4-2.1,0.4c-0.4,0-0.8,0-1.2-0.1c-0.4-0.1-0.8-0.3-1.1-0.5c-0.3-0.3-0.6-0.6-0.8-1
		c-0.2-0.5-0.3-1-0.3-1.6c0-0.7,0.2-1.4,0.6-1.9c0.4-0.5,0.9-0.9,1.5-1.2c0.6-0.3,1.2-0.5,1.9-0.6c0.6-0.1,1.2-0.2,1.9-0.2h0.5h0.5
		V84c0-0.6-0.1-1.1-0.5-1.6c-0.5-0.4-1.2-0.6-1.9-0.5c-0.6,0-1.2,0.1-1.7,0.3c-0.5,0.2-0.9,0.4-1.4,0.7L130.7,82.9z M136.4,85.8
		h-0.6c-0.5,0-1,0-1.5,0.1c-0.5,0.1-0.9,0.2-1.4,0.3c-0.4,0.2-0.7,0.4-1,0.7c-0.3,0.3-0.4,0.7-0.4,1.2c0,0.4,0.1,0.9,0.4,1.2
		c0.4,0.4,1,0.6,1.5,0.5c0.4,0,0.8-0.1,1.1-0.2c0.3-0.1,0.6-0.2,0.9-0.4c0.2-0.1,0.5-0.3,0.6-0.5c0.1-0.2,0.2-0.4,0.2-0.6
		L136.4,85.8z"/>
	<path class="st0" d="M141.8,75.1c0.1,0,0.2,0,0.3,0h0.1c0.4,0,0.8,0.1,1.1,0.3c0.3,0.3,0.5,0.8,0.4,1.2v12.4c0,0.2,0,0.4,0,0.6
		c0,0.1,0,0.3,0.1,0.4c0.1,0.1,0.2,0.2,0.3,0.2c0.2,0.1,0.4,0.1,0.6,0.1v0.8c-0.2,0.1-0.4,0.1-0.6,0.1c-0.2,0-0.5,0-0.7,0
		c-0.3,0-0.7-0.1-1-0.2c-0.2-0.1-0.4-0.3-0.5-0.6c-0.1-0.2-0.2-0.5-0.2-0.8c0-0.3,0-0.6,0-0.8L141.8,75.1z"/>
	<path class="st0" d="M152,80.5c0.1,0,0.2,0,0.3,0h0.1c0.3,0,0.7,0.1,0.9,0.2c0.3,0.2,0.5,0.5,0.5,0.8c0.3-0.4,0.7-0.7,1.2-0.9
		c0.6-0.3,1.3-0.4,1.9-0.4c0.6,0,1.1,0.1,1.7,0.3c0.5,0.2,1,0.5,1.4,0.9c0.5,0.5,0.8,1.1,1,1.7c0.3,0.8,0.4,1.7,0.4,2.5
		c0,1-0.1,1.9-0.4,2.8c-0.2,0.7-0.6,1.3-1.1,1.8c-0.4,0.4-0.9,0.7-1.5,0.9c-0.5,0.2-1,0.3-1.6,0.3c-0.7,0-1.3-0.1-1.9-0.4
		c-0.4-0.2-0.7-0.4-1-0.8v5.8H152V80.5z M153.9,88.6c0.1,0.1,0.2,0.3,0.4,0.4c0.2,0.2,0.4,0.3,0.6,0.4c0.2,0.1,0.5,0.2,0.8,0.3
		c0.3,0.1,0.6,0.1,0.9,0.1c0.8,0.1,1.6-0.3,2.1-1c0.5-0.9,0.8-2,0.7-3c0-0.5,0-1-0.1-1.6c-0.1-0.4-0.2-0.9-0.5-1.2
		c-0.2-0.3-0.5-0.6-0.9-0.8c-0.4-0.2-0.9-0.3-1.4-0.3c-0.6,0-1.3,0.1-1.8,0.4c-0.4,0.2-0.7,0.6-0.7,1.1V88.6z"/>
	<path class="st0" d="M164.2,80.5c0.1,0,0.2,0,0.3,0h0.1c0.4,0,0.7,0.1,1,0.3c0.3,0.2,0.5,0.5,0.5,0.9c0.3-0.4,0.6-0.7,0.9-0.9
		c0.4-0.3,0.9-0.4,1.5-0.4c0.2,0,0.4,0,0.5,0c0.2,0,0.4,0.1,0.5,0.2c0.2,0.1,0.3,0.2,0.4,0.3c0.1,0.1,0.2,0.3,0.2,0.5
		c0,0.3-0.1,0.5-0.2,0.8c-0.1,0.2-0.2,0.5-0.4,0.7c-0.2-0.2-0.4-0.3-0.6-0.4c-0.3-0.1-0.6-0.1-0.9-0.1c-0.5,0-1,0.2-1.4,0.5
		c-0.2,0.1-0.3,0.3-0.4,0.5c-0.1,0.2-0.2,0.4-0.2,0.6v7.6h-1.9V80.5z"/>
	<path class="st0" d="M181,85.8c0,0.7-0.1,1.4-0.3,2.2c-0.2,0.7-0.5,1.3-0.9,1.8c-0.4,0.5-0.9,1-1.6,1.3c-0.7,0.3-1.5,0.5-2.3,0.5
		c-0.8,0-1.6-0.1-2.3-0.4c-0.6-0.3-1.1-0.7-1.5-1.2c-0.4-0.5-0.7-1.1-0.9-1.8c-0.2-0.7-0.3-1.5-0.3-2.2c0-0.7,0.1-1.5,0.3-2.2
		c0.2-0.7,0.6-1.3,1-1.8c0.4-0.5,1-0.9,1.6-1.2c0.7-0.3,1.4-0.5,2.2-0.5c0.8,0,1.6,0.1,2.3,0.5c0.6,0.3,1.1,0.7,1.4,1.3
		c0.4,0.5,0.7,1.1,0.9,1.8C180.9,84.4,181,85.1,181,85.8z M179,85.8c0-0.5,0-0.9-0.1-1.4c-0.1-0.4-0.2-0.9-0.4-1.2
		c-0.2-0.4-0.5-0.7-0.9-0.9c-0.9-0.5-2-0.5-2.9,0c-0.4,0.2-0.7,0.5-0.9,0.9c-0.2,0.4-0.4,0.8-0.5,1.2c-0.1,0.5-0.1,0.9-0.1,1.4
		c0,0.5,0,1,0.1,1.4c0.1,0.5,0.2,0.9,0.5,1.3c0.2,0.4,0.5,0.7,0.9,1c0.4,0.3,0.9,0.4,1.5,0.4c0.5,0,1-0.1,1.5-0.4
		c0.4-0.2,0.7-0.6,0.9-1c0.2-0.4,0.4-0.8,0.4-1.3C178.9,86.8,178.9,86.3,179,85.8L179,85.8z"/>
	<path class="st0" d="M183.3,79.3c-0.1-1.2,0.3-2.4,1-3.3c0.8-0.8,1.9-1.2,3-1.1c0.4,0,0.9,0,1.3,0.2c0.3,0.1,0.7,0.2,1,0.4
		c0.2,0.1,0.5,0.3,0.6,0.5c0.1,0.1,0.2,0.3,0.2,0.5c0,0.2-0.1,0.4-0.2,0.6c-0.1,0.2-0.2,0.4-0.4,0.6h-0.3c-0.3-0.3-0.6-0.6-0.9-0.8
		c-0.4-0.2-0.8-0.3-1.3-0.3c-0.6,0-1.2,0.2-1.6,0.6c-0.4,0.5-0.6,1.2-0.6,1.9v1.5h3.8v1.7h-3.8v9h-1.9L183.3,79.3z"/>
	<path class="st0" d="M192.5,86.2c0,1,0.3,1.9,0.9,2.7c0.6,0.7,1.5,1.1,2.5,1c0.4,0,0.8,0,1.1-0.1c0.3-0.1,0.6-0.2,0.9-0.3
		c0.2-0.1,0.4-0.2,0.6-0.4c0.2-0.2,0.3-0.3,0.4-0.4c0.2,0.2,0.3,0.4,0.4,0.7c0.1,0.2,0.2,0.4,0.2,0.6c0,0.1,0,0.3-0.1,0.4
		c-0.1,0.2-0.2,0.3-0.4,0.4c-0.4,0.3-0.9,0.5-1.3,0.6c-0.6,0.2-1.3,0.3-2,0.3c-0.7,0-1.4-0.1-2-0.3c-0.6-0.2-1.2-0.5-1.6-1
		c-0.5-0.5-0.9-1.1-1.1-1.8c-0.3-0.9-0.4-1.8-0.4-2.7c0-0.8,0.1-1.7,0.4-2.5c0.2-0.6,0.6-1.2,1.1-1.7c0.4-0.4,1-0.8,1.6-1
		c0.6-0.2,1.2-0.3,1.8-0.3c0.7,0,1.4,0.1,2,0.4c0.5,0.2,1,0.6,1.4,1c0.4,0.4,0.6,1,0.8,1.5c0.2,0.6,0.3,1.2,0.2,1.8v0.7
		c0,0.2,0,0.4,0,0.6L192.5,86.2z M197.8,84.8c0-0.4,0-0.8-0.1-1.1c-0.1-0.3-0.2-0.6-0.4-0.9c-0.2-0.3-0.5-0.5-0.8-0.6
		c-0.4-0.2-0.8-0.2-1.2-0.2c-0.7,0-1.5,0.2-2,0.8c-0.5,0.6-0.8,1.3-0.9,2.1L197.8,84.8z"/>
	<path class="st0" d="M208.3,83c-0.3-0.4-0.7-0.6-1.1-0.8c-0.5-0.2-1-0.4-1.6-0.3c-0.2,0-0.4,0-0.6,0.1c-0.2,0-0.4,0.1-0.6,0.2
		c-0.2,0.1-0.4,0.2-0.5,0.4c-0.1,0.2-0.2,0.4-0.2,0.7c0,0.2,0.1,0.4,0.2,0.6c0.1,0.2,0.3,0.3,0.5,0.4c0.2,0.1,0.5,0.2,0.7,0.3
		c0.3,0.1,0.6,0.2,0.9,0.2c0.4,0.1,0.9,0.2,1.3,0.4c0.4,0.1,0.8,0.4,1.1,0.6c0.3,0.3,0.6,0.6,0.8,0.9c0.2,0.4,0.3,0.9,0.3,1.4
		c0,0.5-0.1,1-0.3,1.5c-0.2,0.4-0.5,0.7-0.9,1c-0.4,0.3-0.8,0.5-1.3,0.6c-0.5,0.1-1,0.2-1.6,0.2c-0.5,0-1,0-1.4-0.1
		c-0.4-0.1-0.7-0.2-1.1-0.3c-0.3-0.1-0.6-0.3-0.8-0.5c-0.1-0.1-0.2-0.3-0.2-0.5c0-0.2,0.1-0.4,0.2-0.6c0.1-0.2,0.3-0.5,0.4-0.7
		c0.1,0.1,0.3,0.2,0.4,0.3c0.2,0.1,0.4,0.3,0.7,0.4c0.3,0.1,0.6,0.2,0.9,0.3c0.3,0.1,0.7,0.1,1,0.1c0.3,0,0.5,0,0.8-0.1
		c0.2,0,0.5-0.1,0.7-0.3c0.2-0.1,0.4-0.3,0.5-0.5c0.1-0.2,0.2-0.5,0.2-0.8c0-0.3-0.1-0.5-0.2-0.8c-0.1-0.2-0.3-0.4-0.5-0.5
		c-0.2-0.1-0.5-0.3-0.8-0.3c-0.3-0.1-0.6-0.2-0.9-0.2c-0.4-0.1-0.8-0.2-1.3-0.3c-0.4-0.1-0.7-0.3-1.1-0.6c-1-0.9-1.3-2.3-0.7-3.5
		c0.2-0.4,0.5-0.7,0.9-1c0.4-0.3,0.8-0.4,1.2-0.6c0.5-0.1,1-0.2,1.4-0.2c0.5,0,1.1,0.1,1.6,0.2c0.4,0.1,0.8,0.2,1.1,0.4
		c0.2,0.1,0.4,0.3,0.6,0.5c0.1,0.1,0.2,0.3,0.2,0.4c0,0.2,0,0.4-0.1,0.6c-0.1,0.2-0.2,0.4-0.3,0.7L208.3,83z"/>
	<path class="st0" d="M217.9,83c-0.3-0.4-0.7-0.6-1.1-0.8c-0.5-0.2-1-0.4-1.6-0.3c-0.2,0-0.4,0-0.6,0.1c-0.2,0-0.5,0.1-0.7,0.2
		c-0.2,0.1-0.4,0.2-0.5,0.4c-0.1,0.2-0.2,0.4-0.2,0.7c0,0.2,0.1,0.4,0.2,0.6c0.1,0.2,0.3,0.3,0.5,0.4c0.2,0.1,0.5,0.2,0.7,0.3
		c0.3,0.1,0.6,0.2,0.9,0.2c0.4,0.1,0.9,0.2,1.3,0.4c0.4,0.1,0.8,0.4,1.1,0.6c0.3,0.3,0.6,0.6,0.8,0.9c0.2,0.4,0.3,0.9,0.3,1.4
		c0,0.5-0.1,1-0.3,1.5c-0.2,0.4-0.5,0.7-0.9,1c-0.4,0.3-0.8,0.5-1.3,0.6c-0.5,0.1-1,0.2-1.6,0.2c-0.5,0-1,0-1.4-0.1
		c-0.4-0.1-0.7-0.2-1.1-0.3c-0.3-0.1-0.6-0.3-0.8-0.5c-0.1-0.1-0.2-0.3-0.2-0.5c0-0.2,0.1-0.4,0.2-0.6c0.1-0.2,0.3-0.5,0.4-0.7
		c0.1,0.1,0.3,0.2,0.4,0.3c0.2,0.1,0.4,0.3,0.7,0.4c0.3,0.1,0.6,0.2,0.9,0.3c0.3,0.1,0.7,0.1,1,0.1c0.3,0,0.5,0,0.8-0.1
		c0.2,0,0.5-0.1,0.7-0.3c0.2-0.1,0.4-0.3,0.5-0.5c0.1-0.2,0.2-0.5,0.2-0.8c0-0.3-0.1-0.5-0.2-0.8c-0.1-0.2-0.3-0.4-0.5-0.5
		c-0.2-0.1-0.5-0.3-0.8-0.3c-0.3-0.1-0.6-0.2-0.9-0.2c-0.4-0.1-0.8-0.2-1.3-0.3c-0.4-0.1-0.7-0.3-1.1-0.6c-1-0.9-1.3-2.3-0.7-3.6
		c0.2-0.4,0.5-0.7,0.9-1c0.4-0.3,0.8-0.4,1.2-0.6c0.5-0.1,1-0.2,1.4-0.2c0.5,0,1.1,0.1,1.6,0.2c0.4,0.1,0.8,0.2,1.1,0.4
		c0.2,0.1,0.4,0.3,0.6,0.5c0.1,0.1,0.2,0.3,0.2,0.4c0,0.2,0,0.4-0.1,0.6c-0.1,0.2-0.2,0.4-0.3,0.7L217.9,83z"/>
	<path class="st0" d="M221.2,77c0-0.3,0.1-0.7,0.4-0.9c0.2-0.2,0.5-0.4,0.9-0.4c0.3,0,0.6,0.1,0.9,0.4c0.2,0.2,0.4,0.6,0.4,0.9
		c0,0.7-0.5,1.2-1.2,1.2c0,0,0,0,0,0C221.8,78.2,221.2,77.7,221.2,77C221.2,77,221.2,77,221.2,77L221.2,77z M221.6,80.4h0.3h0.2
		c0.4,0,0.8,0.1,1.1,0.3c0.3,0.3,0.5,0.8,0.4,1.2v7.2c0,0.3,0,0.6,0.2,0.9c0.1,0.2,0.4,0.3,0.9,0.3v0.8c-0.2,0.1-0.4,0.1-0.6,0.1
		c-0.2,0-0.5,0-0.7,0c-0.3,0-0.7-0.1-1-0.2c-0.2-0.1-0.4-0.3-0.5-0.6c-0.1-0.2-0.2-0.5-0.2-0.8c0-0.3,0-0.6,0-0.8L221.6,80.4z"/>
	<path class="st0" d="M236.5,85.8c0,0.7-0.1,1.4-0.3,2.2c-0.2,0.7-0.5,1.3-0.9,1.8c-0.4,0.5-0.9,1-1.6,1.3c-0.7,0.3-1.5,0.5-2.3,0.5
		c-0.8,0-1.6-0.1-2.3-0.4c-0.6-0.3-1.1-0.7-1.5-1.2c-0.4-0.5-0.7-1.1-0.9-1.8c-0.2-0.7-0.3-1.5-0.3-2.2c0-0.7,0.1-1.5,0.3-2.2
		c0.2-0.7,0.5-1.3,0.9-1.8c0.4-0.5,1-0.9,1.6-1.2c0.7-0.3,1.4-0.5,2.2-0.5c0.8,0,1.6,0.1,2.3,0.5c0.6,0.3,1.1,0.7,1.5,1.3
		c0.4,0.5,0.7,1.1,0.9,1.8C236.4,84.4,236.5,85.1,236.5,85.8z M234.5,85.8c0-0.5,0-0.9-0.1-1.4c-0.1-0.4-0.2-0.9-0.4-1.2
		c-0.2-0.4-0.5-0.7-0.9-0.9c-0.4-0.3-1-0.4-1.5-0.3c-0.5,0-1,0.1-1.4,0.3c-0.4,0.2-0.7,0.5-0.9,0.9c-0.2,0.4-0.4,0.8-0.5,1.2
		c-0.1,0.5-0.2,0.9-0.1,1.4c0,0.5,0,1,0.1,1.4c0.1,0.5,0.2,0.9,0.5,1.3c0.2,0.4,0.5,0.7,0.9,1c0.4,0.3,0.9,0.4,1.4,0.4
		c0.5,0,1-0.1,1.5-0.4c0.4-0.2,0.7-0.6,0.9-1c0.2-0.4,0.4-0.8,0.4-1.3C234.5,86.8,234.5,86.3,234.5,85.8L234.5,85.8z"/>
	<path class="st0" d="M239.4,80.5c0.1,0,0.2,0,0.2,0h0.1c0.4,0,0.7,0.1,1,0.3c0.3,0.2,0.5,0.5,0.5,0.9c0.4-0.4,0.9-0.7,1.4-0.9
		c0.7-0.3,1.4-0.4,2.1-0.4c0.8-0.1,1.7,0.2,2.4,0.7c0.5,0.4,0.9,1,1.1,1.7c0.1,0.3,0.1,0.7,0.1,1v1.1v6.4h-1.9v-6.4
		c0-0.3,0-0.6,0-0.8c0-0.3,0-0.5-0.1-0.7c-0.1-0.4-0.3-0.7-0.7-0.9c-0.5-0.2-1-0.4-1.5-0.3c-0.4,0-0.8,0-1.2,0.1
		c-0.3,0.1-0.6,0.2-0.9,0.4c-0.2,0.1-0.4,0.3-0.6,0.5c-0.1,0.2-0.2,0.4-0.2,0.6v7.6h-1.9L239.4,80.5z"/>
	<path class="st0" d="M252.1,82.9c-0.1-0.2-0.2-0.4-0.3-0.6c-0.1-0.2-0.1-0.4-0.1-0.5c0-0.2,0.2-0.4,0.4-0.6
		c0.3-0.2,0.6-0.4,0.9-0.5c0.4-0.1,0.8-0.3,1.3-0.3c0.5-0.1,0.9-0.1,1.4-0.1c0.7,0,1.3,0.1,1.9,0.2c0.5,0.1,0.9,0.4,1.2,0.8
		c0.3,0.4,0.6,0.8,0.7,1.2c0.1,0.6,0.2,1.1,0.2,1.7v4.5c0,0.3,0,0.6,0,0.8c0,0.2,0.1,0.3,0.2,0.4c0.1,0.1,0.2,0.2,0.3,0.2
		c0.2,0,0.4,0,0.5,0v0.9c-0.2,0.1-0.3,0.1-0.5,0.1c-0.2,0-0.4,0-0.6,0c-0.4,0-0.8-0.1-1.2-0.3c-0.4-0.2-0.6-0.6-0.6-1
		c-0.4,0.4-0.9,0.7-1.4,1c-0.7,0.3-1.4,0.4-2.1,0.4c-0.4,0-0.8,0-1.2-0.1c-0.4-0.1-0.8-0.3-1.1-0.5c-0.3-0.3-0.6-0.6-0.8-1
		c-0.2-0.5-0.3-1-0.3-1.6c0-0.7,0.2-1.4,0.6-1.9c0.4-0.5,0.9-0.9,1.5-1.2c0.6-0.3,1.2-0.5,1.9-0.6c0.6-0.1,1.2-0.2,1.8-0.2h0.5h0.5
		V84c0-0.6-0.1-1.1-0.5-1.6c-0.5-0.4-1.2-0.6-1.9-0.5c-0.6,0-1.2,0.1-1.7,0.3c-0.5,0.2-0.9,0.4-1.4,0.7L252.1,82.9z M257.8,85.8
		h-0.7c-0.5,0-1,0-1.5,0.1c-0.5,0.1-0.9,0.2-1.4,0.3c-0.4,0.2-0.7,0.4-1,0.7c-0.3,0.3-0.4,0.7-0.4,1.2c0,0.4,0.1,0.9,0.4,1.2
		c0.4,0.4,1,0.6,1.5,0.5c0.4,0,0.8-0.1,1.1-0.2c0.3-0.1,0.6-0.2,0.9-0.4c0.2-0.1,0.5-0.3,0.6-0.5c0.1-0.2,0.2-0.4,0.2-0.6
		L257.8,85.8z"/>
	<path class="st0" d="M263.2,75.1c0.1,0,0.2,0,0.3,0h0.1c0.4,0,0.8,0.1,1.1,0.3c0.3,0.3,0.5,0.8,0.4,1.2v12.4c0,0.2,0,0.4,0,0.6
		c0,0.1,0,0.3,0.1,0.4c0.1,0.1,0.2,0.2,0.3,0.2c0.2,0.1,0.4,0.1,0.6,0.1v0.8c-0.2,0.1-0.4,0.1-0.5,0.1c-0.2,0-0.5,0-0.7,0
		c-0.3,0-0.7-0.1-1-0.2c-0.2-0.1-0.4-0.3-0.5-0.6c-0.1-0.2-0.2-0.5-0.2-0.8c0-0.3,0-0.6,0-0.8L263.2,75.1z"/>
	<path class="st0" d="M274.6,83c-0.3-0.4-0.7-0.6-1.1-0.8c-0.5-0.2-1-0.4-1.6-0.3c-0.2,0-0.4,0-0.6,0.1c-0.2,0-0.5,0.1-0.7,0.2
		c-0.2,0.1-0.4,0.2-0.5,0.4c-0.1,0.2-0.2,0.4-0.2,0.7c0,0.2,0,0.4,0.2,0.6c0.1,0.2,0.3,0.3,0.5,0.4c0.2,0.1,0.5,0.2,0.7,0.3
		c0.3,0.1,0.6,0.2,0.9,0.2c0.4,0.1,0.9,0.2,1.3,0.4c0.4,0.1,0.8,0.4,1.1,0.6c0.3,0.3,0.6,0.6,0.8,0.9c0.2,0.4,0.3,0.9,0.3,1.4
		c0,0.5-0.1,1-0.3,1.5c-0.2,0.4-0.5,0.7-0.9,1c-0.4,0.3-0.9,0.5-1.3,0.6c-0.5,0.1-1,0.2-1.6,0.2c-0.5,0-1,0-1.5-0.1
		c-0.4-0.1-0.7-0.2-1.1-0.3c-0.3-0.1-0.6-0.3-0.8-0.5c-0.1-0.1-0.2-0.3-0.2-0.5c0-0.2,0.1-0.4,0.2-0.6c0.1-0.2,0.2-0.4,0.4-0.7
		l0.5,0.3c0.2,0.1,0.4,0.3,0.7,0.4c0.3,0.1,0.6,0.2,0.9,0.3c0.6,0.1,1.2,0.1,1.8,0c0.2-0.1,0.5-0.1,0.7-0.3c0.2-0.1,0.4-0.3,0.5-0.5
		c0.1-0.2,0.2-0.5,0.2-0.8c0-0.3-0.1-0.5-0.2-0.8c-0.1-0.2-0.3-0.4-0.5-0.5c-0.2-0.1-0.5-0.3-0.8-0.3c-0.3-0.1-0.6-0.2-0.9-0.2
		c-0.4-0.1-0.8-0.2-1.3-0.3c-0.4-0.1-0.7-0.3-1.1-0.6c-0.3-0.2-0.6-0.5-0.7-0.9c-0.4-0.8-0.4-1.8,0-2.7c0.2-0.4,0.5-0.7,0.9-1
		c0.4-0.3,0.8-0.4,1.2-0.6c0.5-0.1,1-0.2,1.4-0.2c0.5,0,1.1,0.1,1.6,0.2c0.4,0.1,0.8,0.2,1.1,0.4c0.2,0.1,0.4,0.3,0.6,0.5
		c0.1,0.1,0.1,0.3,0.2,0.4c0,0.2,0,0.4-0.1,0.6c-0.1,0.2-0.2,0.4-0.3,0.7L274.6,83z"/>
	<path class="st0" d="M0.1,29.7c0.2,0,0.5-0.1,0.7-0.1h0.6c0.4,0,0.7,0,1.1,0.1c0.4,0.1,0.7,0.3,1,0.5c0.3,0.3,0.6,0.6,0.8,1
		c0.2,0.5,0.3,1.1,0.3,1.7v11.5h16.6V29.7c0.2,0,0.5-0.1,0.7-0.1h0.6c0.4,0,0.7,0,1.1,0.1c0.4,0.1,0.7,0.3,1,0.5
		c0.3,0.3,0.6,0.6,0.8,1c0.2,0.5,0.3,1.1,0.3,1.7v31.6h-4.5V48.4H4.6v16.1H0.1L0.1,29.7z"/>
	<path class="st0" d="M31.7,36.4l0.5-0.1h0.5c0.3,0,0.6,0,0.9,0.1c0.3,0.1,0.6,0.2,0.8,0.4c0.3,0.2,0.5,0.5,0.6,0.8
		c0.2,0.4,0.3,0.9,0.2,1.4v14.9c0,1.1,0.1,2.2,0.3,3.2c0.2,0.9,0.5,1.8,1,2.5c0.5,0.7,1.2,1.3,2,1.7c1,0.4,2.1,0.6,3.1,0.6
		c1.6,0.1,3.1-0.3,4.5-1.1c1.1-0.9,1.8-2.2,2-3.6c0.2-1.1,0.3-2.2,0.2-3.3V36.4l0.5-0.1h0.5c0.3,0,0.6,0,0.9,0.1
		c0.3,0.1,0.6,0.2,0.8,0.4c0.3,0.2,0.5,0.5,0.6,0.8c0.2,0.4,0.3,0.9,0.3,1.4v14.4v1.7c0,0,0,1.1-0.1,1.7c-0.1,1.1-0.4,2.2-0.8,3.3
		c-0.4,1-1.1,1.9-1.9,2.7c-0.9,0.8-2,1.4-3.1,1.8c-1.5,0.5-3,0.7-4.5,0.7c-3,0-5.3-0.7-6.8-2c-1.6-1.5-2.7-3.4-3-5.6
		c-0.1-0.6-0.2-1.3-0.2-1.9c0-0.7,0-1.4,0-2.1L31.7,36.4z"/>
	<path class="st0" d="M58.4,36.6c1.5-0.2,2.8-0.3,4-0.3s2.2-0.1,3.1-0.1c2.3-0.1,4.6,0.3,6.7,1.1c1.7,0.6,3.1,1.7,4.3,3
		c1.1,1.3,1.9,2.8,2.3,4.4c0.4,1.7,0.6,3.5,0.6,5.3c0,2.4-0.4,4.8-1.3,7c-1.3,3.5-4.3,6.1-7.9,7c-1.8,0.4-3.6,0.6-5.4,0.6h-6.6
		L58.4,36.6z M65.5,61.4c1.6,0,3.3-0.3,4.8-0.9c1.2-0.5,2.3-1.4,3.2-2.4c0.8-1,1.4-2.3,1.7-3.5c0.4-1.4,0.5-2.9,0.5-4.4
		c0-1.5-0.1-2.9-0.5-4.3c-0.3-1.3-0.8-2.4-1.6-3.5c-0.8-1-1.9-1.8-3.1-2.2c-1.6-0.6-3.2-0.8-4.9-0.8c-0.6,0-1.1,0-1.8,0
		c-0.6,0-1.2,0.1-1.8,0.2v21.9L65.5,61.4z"/>
	<path class="st0" d="M84.2,36.6c1.5-0.2,2.8-0.3,3.9-0.3s2.2-0.1,3.2-0.1c2.3-0.1,4.6,0.3,6.7,1.1c1.7,0.6,3.1,1.7,4.3,3
		c1.1,1.3,1.9,2.8,2.3,4.4c0.5,1.8,0.7,3.6,0.7,5.4c0,2.4-0.4,4.8-1.3,7c-1.3,3.5-4.3,6.1-7.9,7c-1.8,0.4-3.6,0.6-5.4,0.6h-6.6
		L84.2,36.6z M91.4,61.4c1.6,0,3.3-0.3,4.8-0.9c1.2-0.5,2.3-1.4,3.2-2.4c0.8-1.1,1.4-2.3,1.7-3.5c0.4-1.4,0.5-2.9,0.5-4.4
		c0-1.5-0.1-2.9-0.5-4.3c-0.3-1.3-0.8-2.4-1.6-3.5c-0.8-1-1.9-1.8-3.1-2.2c-1.6-0.6-3.2-0.8-4.9-0.8c-0.6,0-1.1,0-1.7,0
		c-0.6,0-1.2,0.1-1.8,0.2v21.9L91.4,61.4z"/>
	<path class="st0" d="M110.9,36.4h16.2c0,0.1,0.1,0.2,0.1,0.4c0,0.2,0,0.3,0,0.5c0,0.6-0.2,1.2-0.5,1.6c-0.5,0.5-1.3,0.7-2,0.7
		h-10.1v8.6h9.5v3.2h-9.5v9.9h10.7c0.7-0.1,1.5,0.2,2,0.7c0.4,0.4,0.6,1,0.6,1.6V64c0,0.2,0,0.4,0,0.5h-17L110.9,36.4z"/>
	<path class="st0" d="M133.5,36.5c1-0.1,2.1-0.2,3.3-0.3s2.3-0.1,3.3-0.1c3.8,0,6.6,0.7,8.3,2s2.5,3.3,2.5,6.1
		c0,1.1-0.2,2.1-0.5,3.2c-0.3,0.9-0.8,1.7-1.4,2.4c-0.6,0.7-1.2,1.2-2,1.7c-0.7,0.5-1.5,0.8-2.4,1l7.7,12.2c-0.3,0.1-0.7,0.2-1,0.3
		c-0.3,0.1-0.7,0.1-1,0.1c-1.2,0-2.4-0.6-3-1.6L140.9,53h-3.7v11.5h-3.7L133.5,36.5z M140.1,49.9c0.9,0,1.9-0.1,2.8-0.3
		c0.8-0.2,1.5-0.5,2.2-1c0.6-0.4,1.1-1,1.4-1.7c0.7-1.6,0.7-3.5,0-5.1c-0.3-0.6-0.8-1.2-1.4-1.6c-0.7-0.4-1.4-0.7-2.2-0.8
		c-0.9-0.1-1.9-0.2-2.8-0.2c-0.6,0-1.2,0-1.7,0s-0.9,0.1-1.3,0.1v10.5L140.1,49.9z"/>
	<path class="st0" d="M171.2,41c-0.7-0.5-1.5-0.9-2.3-1.3c-1.1-0.4-2.2-0.6-3.4-0.6c-0.8,0-1.7,0.1-2.5,0.3
		c-0.6,0.2-1.1,0.5-1.6,0.9c-0.4,0.4-0.7,0.8-0.9,1.3c-0.2,0.5-0.3,1-0.3,1.6c0,0.6,0.1,1.2,0.4,1.8c0.3,0.5,0.8,1,1.3,1.3
		c0.6,0.4,1.3,0.7,1.9,1c0.8,0.3,1.6,0.6,2.6,0.9c0.9,0.3,1.9,0.7,2.8,1.1c0.9,0.4,1.7,1,2.4,1.6c0.7,0.7,1.2,1.4,1.6,2.3
		c0.4,1,0.6,2.1,0.6,3.2c0,1.3-0.2,2.5-0.7,3.7c-0.4,1.1-1.1,2-2,2.7c-0.9,0.7-1.9,1.3-3,1.6c-1.2,0.4-2.5,0.6-3.8,0.6
		c-1.5,0-2.9-0.2-4.3-0.5c-1.1-0.2-2.2-0.7-3.1-1.3c-0.6-0.3-1-0.9-1-1.5c0-0.4,0.2-0.8,0.4-1.2c0.3-0.5,0.6-0.9,0.9-1.3
		c1,0.8,2.1,1.4,3.2,1.9c1.3,0.5,2.6,0.8,4,0.8c0.9,0,1.9-0.1,2.7-0.4c0.7-0.2,1.2-0.6,1.7-1.1c0.4-0.4,0.8-1,0.9-1.5
		c0.2-0.6,0.3-1.2,0.3-1.8c0-0.7-0.1-1.4-0.4-2.1c-0.2-0.6-0.6-1.1-1.1-1.5c-0.5-0.5-1.1-0.8-1.7-1.1c-0.8-0.3-1.6-0.6-2.4-0.9
		c-1-0.3-2-0.7-3-1c-0.9-0.4-1.8-0.9-2.6-1.5c-1.6-1.3-2.6-3.3-2.4-5.4c0-1.2,0.2-2.3,0.7-3.3c0.4-0.9,1.1-1.8,1.9-2.4
		c0.8-0.7,1.8-1.2,2.9-1.5c1.2-0.3,2.4-0.5,3.6-0.5c1.1,0,2.2,0.1,3.3,0.4c1.1,0.2,2.1,0.6,3.1,1.2c0.4,0.3,0.8,0.6,1.1,0.9
		c0.3,0.3,0.5,0.7,0.5,1.1c0,0.4-0.2,0.8-0.4,1.1c-0.3,0.4-0.6,0.8-1,1.2c-0.1-0.1-0.2-0.2-0.4-0.4L171.2,41z"/>
	<path class="st0" d="M179,36.4h16.2c0,0.1,0.1,0.3,0.1,0.4s0,0.3,0,0.5c0,0.6-0.2,1.2-0.5,1.6c-0.6,0.5-1.3,0.7-2.1,0.7h-10V48h9.5
		v3.2h-9.5v13.4H179V36.4z"/>
	<path class="st0" d="M199.4,36.4l0.5-0.1h0.5c0.3,0,0.6,0,0.9,0.1c0.3,0.1,0.6,0.2,0.8,0.4c0.3,0.2,0.5,0.5,0.6,0.8
		c0.2,0.4,0.3,0.9,0.3,1.4v25.6h-3.7L199.4,36.4z"/>
	<path class="st0" d="M210.1,36.4h16.2c0,0.1,0.1,0.2,0.1,0.4c0,0.2,0,0.3,0,0.5c0,0.6-0.2,1.2-0.5,1.6c-0.5,0.5-1.3,0.7-2,0.7
		h-10.1v8.6h9.5v3.2h-9.5v9.9h10.7c0.7-0.1,1.5,0.2,2,0.7c0.4,0.4,0.6,1,0.6,1.6V64c0,0.2,0,0.4,0,0.5h-16.9L210.1,36.4z"/>
	<path class="st0" d="M231.8,36.4l0.6-0.1h0.5c0.3,0,0.6,0,0.9,0.1c0.3,0.1,0.6,0.2,0.8,0.4c0.3,0.2,0.5,0.5,0.6,0.8
		c0.2,0.4,0.3,0.9,0.2,1.4v22.4h9.8c0.7-0.1,1.4,0.2,1.9,0.7c0.4,0.4,0.6,1,0.6,1.6V64v0.6h-15.9V36.4z"/>
	<path class="st0" d="M251.8,29.9c1.9-0.2,3.5-0.3,4.9-0.4s2.7-0.1,3.9-0.1c2.8-0.1,5.7,0.4,8.3,1.4c2,0.8,3.9,2,5.3,3.7
		c1.3,1.6,2.3,3.4,2.8,5.5c0.6,2.2,0.8,4.4,0.8,6.7c0,3-0.5,5.9-1.6,8.6c-1.6,4.3-5.3,7.6-9.8,8.6c-2.2,0.5-4.4,0.8-6.6,0.8h-8.1
		L251.8,29.9z M260.7,60.7c2,0.1,4-0.3,5.9-1.1c1.5-0.7,2.9-1.7,3.9-3c1-1.3,1.7-2.8,2.1-4.4c0.4-1.8,0.7-3.6,0.6-5.4
		c0-1.8-0.2-3.6-0.6-5.4c-0.3-1.6-1-3-2-4.3c-1-1.2-2.4-2.2-3.9-2.8c-1.9-0.7-4-1.1-6.1-1c-0.7,0-1.4,0-2.2,0s-1.5,0.1-2.2,0.2v27
		L260.7,60.7z"/>
</g>
</svg>
